<?xml version="1.0" encoding="utf-8"?>
<!-- Generator: Adobe Illustrator 16.0.0, SVG Export Plug-In . SVG Version: 6.00 Build 0)  -->
<!DOCTYPE svg PUBLIC "-//W3C//DTD SVG 1.1//EN" "http://www.w3.org/Graphics/SVG/1.1/DTD/svg11.dtd">
<svg version="1.1" id="Capa_1" xmlns="http://www.w3.org/2000/svg" xmlns:xlink="http://www.w3.org/1999/xlink" x="0px" y="0px"
	 width="203.06px" height="204.5px" viewBox="0 0 203.06 204.5" enable-background="new 0 0 203.06 204.5" xml:space="preserve">
<g>
	<g>
		<path fill="#939292" d="M100.525,105.338c11.308,0,20.476,9.168,20.476,20.478c0,11.305-9.168,20.475-20.476,20.475
			c-11.307,0-20.475-9.17-20.475-20.475C80.051,114.506,89.219,105.338,100.525,105.338z"/>
		<path fill="#939292" d="M109.211,147.685H91.838c-14.453,0-26.213,11.765-26.213,26.217v21.253l0.055,0.329l1.459,0.456
			c13.796,4.311,25.781,5.75,35.647,5.75c19.265,0,30.431-5.496,31.121-5.843l1.368-0.697l0.14,0.003v-21.253
			C135.425,159.449,123.671,147.685,109.211,147.685z"/>
		<circle fill="#939292" cx="58.728" cy="66.171" r="33.03"/>
		<path fill="#939292" d="M142.32,99.201c18.241,0,33.025-14.795,33.025-33.031c0-18.235-14.791-33.028-33.025-33.028
			c-18.248,0-33.029,14.789-33.029,33.028C109.291,84.406,124.072,99.201,142.32,99.201z"/>
		<path fill="#939292" d="M84.471,144.465c-5.243-4.523-8.577-11.2-8.577-18.649c0-9.135,5.008-17.107,12.413-21.361
			c-4.821-1.918-10.063-3.006-15.563-3.006H44.718c-23.318,0-42.288,18.977-42.288,42.29v34.281l0.085,0.536l2.359,0.734
			c21.838,6.823,40.849,9.172,56.589,9.259v-14.649C61.465,159.692,71.276,147.77,84.471,144.465z"/>
		<path fill="#939292" d="M156.333,101.448h-28.022c-5.497,0-10.733,1.084-15.558,3.003c7.411,4.254,12.421,12.223,12.421,21.364
			c0,7.442-3.339,14.121-8.576,18.642c5.279,1.314,10.142,4.018,14.093,7.97c5.741,5.748,8.907,13.375,8.903,21.477v14.646
			c15.74-0.087,34.754-2.438,56.586-9.259l2.361-0.734l0.088-0.536v-34.281C198.62,120.425,179.651,101.448,156.333,101.448z"/>
	</g>
</g>
</svg>
